<?xml version="1.0"?>
<svg version="1.1" xmlns="http://www.w3.org/2000/svg" width="223px" height="150px" style=""><path fill="#040c12" d="M64.784,84.772q2.716,0.084,2.87,0.084l0.182,0q0.672-0.056,0.672,0.196q0,0.392-1.092,0.392l-2.38-0.056q-0.728,0.056-0.868,0.14q-1.176,1.456-3.164,4.214t-1.988,3.29q0,0.224,0.504-0.112q0.308,0,0.308,0.084q0,0.14-0.616,0.42l-0.784,0.42q-0.532,0.448-1.218,0.448t-0.63-0.336q0.028-0.672,1.988-3.402t4.06-5.194q-2.016,0.364-3.08,0.364q-0.112-0.028-0.112-0.182t0.336-0.434t0.714-0.28t1.218-0.028l1.428,0q0.952-1.288,4.228-5.936q1.344-1.932,1.344-3.192q0-1.96-2.912-1.96q-2.268,0-5.334,1.26t-5.642,3.444q-1.82,1.512-2.884,3.276t-1.064,3.136q0,2.212,2.632,2.212q0.224,0,0.476-0.028q1.708-0.14,3.234-1.946t1.526-3.038q0-0.112-0.028-0.252q0.728,0.14,0.728,0.868q0,1.204-1.568,2.828q-2.128,2.212-4.928,2.212q-1.54,0-2.408-0.812t-0.868-2.212q0-3.304,4.032-6.664q2.912-2.38,6.188-3.598t5.698-1.218t3.612,0.7t1.19,1.946t-1.092,2.814q-0.644,1.036-4.508,6.132z M78.22876,83.428l0.392-0.084q0.308,0,0.588,0.252t0.28,0.392t-1.736,2.702t-1.736,3.57q0,0.084,0.028,0.168q0.14,0.644,0.616,0.644q1.456,0,5.32-4.816q0.084-0.112,0.196-0.112t0.112,0.21t-0.252,0.546q-3.584,4.788-5.46,4.788q-0.252,0-0.476-0.084q-1.232-0.476-1.232-1.848q0-0.476,0.112-0.952l-1.736,1.68q-1.652,1.456-2.394,1.456t-1.414-0.476q-0.756-0.56-0.756-1.484q0-2.044,2.856-4.886t5.236-2.842q0.924,0,1.232,0.644q0.084,0.224,0.14,0.378t0.084,0.154z M69.85676,90.316q0,1.008,0.7,1.008q1.624,0,4.424-3.556l2.968-4.088q-0.224-0.392-0.728-0.392q-1.708,0-4.536,2.646t-2.828,4.382z M86.85752,91.38q-0.812,0.476-2.002,0.476t-1.82-0.784t-1.078-2.492q-0.504,0.504-0.7,0.504q-0.14,0-0.14-0.196t0.14-0.336q0.924-1.148,3.136-3.304l3.528-3.304q1.512-1.428,1.792-1.428q0.896,0,0.896,0.672q0,0.336-0.266,0.658t-0.392,0.504t-0.266,0.35q-0.504,0.868-1.022,3.584t-0.798,3.78q2.324-0.028,4.788-3.024q0.28-0.28,0.42-0.28t0.14,0.182t-0.252,0.49q-1.624,1.904-3.024,2.66q-0.84,0.42-2.184,0.7z M83.07752,88.272q0,0.952,0.63,1.554t1.414,0.602t1.204-0.308q0.56-0.308,1.106-2.576t0.658-4.004l0.112-0.952q-1.54,1.148-3.29,2.968t-1.806,2.408q-0.028,0.168-0.028,0.308z M99.63028,91.688q-1.652,0-1.652-1.932q0-1.092,0.77-2.422t1.89-3.122q-3.584,1.792-6.496,5.292q-1.624,2.436-1.904,2.436q-0.812,0-0.812-0.476q0-0.252,0.336-0.896q2.716-4.844,4.116-7.084q3.332-5.348,4.704-5.796q0.056-0.028,0.112-0.028q0.364,0,0.504,0.588q-0.084,0.588-2.912,4.256q-2.94,3.724-3.332,4.872q1.036-0.756,3.612-2.548q2.772-1.932,3.668-1.932t0.896,0.7q0,0.112-0.014,0.154t-1.946,2.646t-1.932,3.836q0,0.644,0.476,0.644q1.512-0.056,4.536-3.64q0.252-0.252,0.378-0.252t0.126,0.168q0,0.56-2.772,3.024q-1.736,1.512-2.352,1.512z M111.63304,80.642q0.378,0.266,0.378,0.63t-0.35,0.63t-0.77,0.266t-0.77-0.308t-0.35-0.7q0-0.784,1.064-0.784q0.42,0,0.798,0.266z M105.76704,92.108q-1.428,0-1.428-1.848q0-1.512,1.652-4.186t2.66-2.702q0.28,0,0.63,0.224t0.35,0.448q-0.14,0.196-0.336,0.434t-0.42,0.518t-0.616,0.798t-0.756,0.994q-2.1,2.716-2.1,3.738t0.7,1.022q0.588,0,1.596-0.644q2.352-1.456,3.724-3.192q0.504-0.644,0.686-0.644t0.182,0.224t-0.644,0.896t-1.022,1.064t-0.518,0.518t-0.518,0.476t-0.574,0.49t-0.56,0.42t-0.644,0.406t-0.644,0.294q-0.588,0.252-1.4,0.252z M119.6318,85.864q0,0.98-1.876,3.276q-2.212,2.716-3.78,2.716l-0.448,0q-0.728,0-1.148-0.756q-0.336-0.532-0.336-1.176q0-1.68,2.45-4.718t3.962-3.038q1.428,0,1.428,1.512q0,0.392-0.14,1.008q0.028,0.084,0.532,0.084t1.54-0.532q-0.028,0.476-2.212,1.372q0.028,0.112,0.028,0.252z M117.8118,84.408q-0.952,0-2.702,2.24t-1.75,3.304t0.672,1.064q1.204,0,3.052-2.184t1.848-3.136q-0.448-0.252-1.12-1.288z M125.93656,82.952q0.756,0,0.756,0.588q0,0.168-0.084,0.336q-2.52,3.5-3.024,5.292q6.524-6.524,7.924-6.524q0.14-0.028,0.252-0.028q0.784,0,0.784,0.7q0,0.14-0.056,0.28t-1.12,1.512q-1.232,1.456-2.086,2.8t-0.854,2.24t0.392,0.896q1.232,0,4.284-3.388q0.056-0.056,0.196-0.252q0.42-0.504,0.504-0.504t0.084,0.28t-0.392,0.728q-3.472,3.948-4.928,3.948q-1.372,0-1.372-1.512t1.12-3.472l1.792-2.912q-1.904,1.4-3.388,3.066t-2.702,3.234t-1.414,1.568q-0.42,0-0.658-0.35t-0.238-0.868t0.364-1.386t0.924-2.1l-1.68,1.764q-0.616,0.616-0.77,0.616t-0.154-0.182t0.224-0.406q1.036-1.036,1.792-1.988q0.728-0.952,2.996-3.64q0.252-0.336,0.532-0.336z M149.09732,84.016q-1.68,0-2.828-0.77t-1.148-1.946q0-1.484,1.932-2.968q0.336-0.252,0.504-0.252t0.168,0.112q0,0.28-0.448,0.448q-1.568,1.26-1.568,2.548q0,0.924,0.84,1.554t2.1,0.63q2.744,0,5.18-2.632q1.26-1.372,1.26-3.164t-1.344-2.66q-1.12-0.784-3.024-0.784q-2.744,0-5.516,1.372q-3.416,1.652-6.174,5.138t-2.758,6.706q0,2.548,1.736,3.934t4.312,1.386q2.94,0,5.768-1.428q2.156-1.12,3.724-2.856q0.448-0.504,0.7-0.504q0.168,0,0.168,0.294t-0.308,0.602q-1.484,1.568-4.284,3.024q-3.444,1.82-6.93,1.82t-5.194-2.296q-1.148-1.512-1.148-3.612q0-0.924,0.224-1.988q0.756-3.584,3.976-6.972q2.324-2.436,5.516-3.794t6.048-1.358q1.512,0,2.632,0.364q3.052,0.952,3.052,3.836q0,1.764-1.036,3.052q-2.576,3.164-6.132,3.164z M162.38808,80.642q0.378,0.266,0.378,0.63t-0.35,0.63t-0.77,0.266t-0.77-0.308t-0.35-0.7q0-0.784,1.064-0.784q0.42,0,0.798,0.266z M156.52208,92.108q-1.428,0-1.428-1.848q0-1.512,1.652-4.186t2.66-2.702q0.28,0,0.63,0.224t0.35,0.448q-0.14,0.196-0.336,0.434t-0.42,0.518t-0.616,0.798t-0.756,0.994q-2.1,2.716-2.1,3.738t0.7,1.022q0.588,0,1.596-0.644q2.352-1.456,3.724-3.192q0.504-0.644,0.686-0.644t0.182,0.224t-0.644,0.896t-1.022,1.064t-0.518,0.518t-0.518,0.476t-0.574,0.49t-0.56,0.42t-0.644,0.406t-0.644,0.294q-0.588,0.252-1.4,0.252z M170.38684,82.784l4.032-0.056q0.084,0.056,0.084,0.084q0,0.252-3.486,0.7t-3.766,0.532q-0.532,0.476-1.96,2.842t-1.428,3.458q0,1.036,1.428,1.036q0.672,0,1.764-0.42t1.68-0.784q1.568-0.98,3.36-2.884q0.392-0.392,0.532-0.392q0.084,0,0.084,0.168t-0.42,0.672q-1.456,1.792-3.276,2.884q-2.184,1.344-4.172,1.344q-0.868,0-1.414-0.378t-0.546-1.526t1.008-3.15t1.54-2.982q-0.392,0.084-0.672,0.084q-0.812,0-0.812-0.644q0-0.476,0.672-0.672q0.084,0,0.252-0.028l1.624,0q0.504-0.644,1.148-1.484q0.784-1.008,1.064-1.008t0.7,0.224t0.42,0.532t-1.344,1.82q0.728,0.028,1.904,0.028z M171.0636,95.048q1.344,1.68,2.324,1.68q1.596,0,3.444-2.548q1.344-1.876,2.632-4.732l1.064-2.576l-4.116,3.22q-1.904,1.484-3.052,1.484q-0.616,0-0.98-0.42t-0.364-0.952q0-1.204,2.072-3.962t3.024-2.758t0.952,0.644q0,0.252-2.478,2.898t-2.478,3.57q0,0.364,0.476,0.364q0.896,0,3.598-2.1t4.074-3.472q0.308-0.364,0.868-1.092q0.532-0.616,1.176-0.616t0.644,0.616q0,0.112-1.26,1.988t-1.316,1.988q-0.868,1.68-2.66,4.9q-2.716,4.368-5.432,4.368q-0.896,0-1.568-0.77t-0.644-1.722z"/><path fill="#" d=""/></svg>
